<?xml version="1.0" standalone="no"?><!DOCTYPE svg PUBLIC "-//W3C//DTD SVG 1.1//EN" "http://www.w3.org/Graphics/SVG/1.1/DTD/svg11.dtd"><svg t="1623694648231" class="icon" viewBox="0 0 1030 1024" version="1.1" xmlns="http://www.w3.org/2000/svg" p-id="16385" width="20" height="20" xmlns:xlink="http://www.w3.org/1999/xlink"><defs><style type="text/css"></style></defs><path d="M678.4 140.8c0 9.6-3.2 25.6-12.8 35.2-9.6 9.6-22.4 16-35.2 16-12.8 0-22.4-3.2-32-12.8-9.6-12.8-9.6-48-38.4-38.4-44.8 16-92.8 198.4-92.8 198.4h64c9.6 0 16 9.6 12.8 16l-6.4 16c-3.2 6.4-9.6 12.8-19.2 12.8h-64l-83.2 272c-16 54.4-35.2 112-60.8 163.2-16 38.4-41.6 76.8-73.6 105.6-35.2 28.8-73.6 41.6-124.8 41.6-35.2 0-57.6-6.4-83.2-22.4-16-12.8-28.8-32-28.8-51.2 0-16 6.4-32 16-38.4s19.2-16 38.4-16 32 3.2 38.4 16c6.4 9.6 9.6 22.4 9.6 35.2 0 22.4 22.4 22.4 28.8 19.2 9.6-3.2 32-3.2 67.2-92.8C268.8 668.8 342.4 384 342.4 384h-64c-9.6 0-16-9.6-12.8-19.2l3.2-12.8c3.2-6.4 9.6-12.8 19.2-12.8H358.4l9.6-28.8c9.6-38.4 22.4-76.8 38.4-112 16-32 38.4-96 108.8-124.8 57.6-22.4 92.8-6.4 115.2 3.2 22.4 6.4 48 38.4 48 64zM1024 384c-6.4 6.4-28.8 0-38.4-6.4-6.4-6.4-9.6-6.4-12.8-6.4-3.2 0-9.6 0-12.8 3.2l-25.6 25.6-89.6 92.8 38.4 124.8c3.2 12.8 9.6 22.4 12.8 35.2 3.2 9.6 9.6 12.8 16 12.8s70.4-12.8 54.4 12.8c-12.8 19.2-28.8 35.2-48 48-16 9.6-32 16-48 16-22.4 0-44.8-9.6-57.6-25.6-16-22.4-28.8-48-35.2-73.6l-19.2-60.8s-80 83.2-102.4 112c-12.8 16-41.6 48-76.8 48-25.6 0-41.6-19.2-41.6-54.4 0-25.6 51.2 3.2 57.6 3.2 6.4 0 19.2-9.6 32-22.4l121.6-128-22.4-73.6c-3.2-16-9.6-25.6-12.8-35.2-3.2-6.4-6.4-12.8-9.6-16-3.2-3.2-9.6-6.4-16-6.4-19.2 0-70.4 12.8-54.4-12.8 12.8-19.2 28.8-35.2 44.8-48 16-9.6 35.2-16 54.4-16 22.4 0 44.8 9.6 60.8 25.6 16 22.4 28.8 44.8 35.2 70.4l6.4 25.6s57.6-60.8 73.6-76.8c12.8-16 38.4-41.6 70.4-48 19.2-3.2 41.6 6.4 51.2 25.6-3.2-6.4 6.4 16-6.4 28.8z" p-id="16386" fill="#000000"></path></svg>
