<?xml version="1.0" standalone="no"?><!DOCTYPE svg PUBLIC "-//W3C//DTD SVG 1.1//EN" "http://www.w3.org/Graphics/SVG/1.1/DTD/svg11.dtd"><svg t="1619188457189" class="icon" viewBox="0 0 1024 1024" version="1.1" xmlns="http://www.w3.org/2000/svg" p-id="16686" xmlns:xlink="http://www.w3.org/1999/xlink" width="20" height="20"><defs><style type="text/css"></style></defs><path d="M139.1104 136.1408h229.888v229.888h-229.888zM642.2528 136.1408h229.888v229.888h-229.888zM139.1104 657.9712h229.888v229.888h-229.888zM381.7472 381.7472h260.4544v260.4544H381.7472zM642.2528 657.9712h229.888v229.888h-229.888z" fill="#DCEDFF" p-id="16687"></path><path d="M872.0896 105.7792H152.2176c-25.3952 0-46.08 20.6848-46.08 46.08v719.872c0 25.3952 20.6848 46.08 46.08 46.08h719.8208c25.3952 0 46.08-20.6848 46.08-46.08V151.8592c0.0512-25.4464-20.6336-46.08-46.0288-46.08z m-5.12 244.4288h-199.1168V156.9792h199.1168V350.208z m0 271.9232h-199.1168V401.408h199.1168v220.7232zM157.3376 401.408h199.1168v220.7232H157.3376V401.408z m250.368 0h208.9472v220.7232H407.7056V401.408z m208.9472-244.4288V350.208H407.7056V156.9792h208.9472z m-260.1472 0V350.208h-199.168V156.9792h199.168z m-199.168 516.352h199.1168v193.28H157.3376v-193.28z m250.368 193.2288V673.28h208.9472v193.28H407.7056z m260.1472 0V673.28h199.1168v193.28h-199.1168z" fill="#5B90EF" p-id="16688"></path></svg>